<svg id="Layer_1" data-name="Layer 1" xmlns="http://www.w3.org/2000/svg" viewBox="0 0 87.78 20.16"><defs><style>.cls-1{fill:#ffce34}</style></defs><path class="cls-1" d="M110.53 46.93h-82v-20.1h82zm-80-2h78v-16.1h-78z" transform="translate(-28.52 -26.83)"/><path class="cls-1" d="M35.42 34h1.45v1A2.51 2.51 0 0139 33.82a3 3 0 013 3.29 3 3 0 01-3 3.29 2.56 2.56 0 01-2.14-1.12v2.9h-1.44zm5.07 3.18a1.88 1.88 0 00-1.81-2 1.91 1.91 0 00-1.85 2 1.91 1.91 0 001.85 2 1.86 1.86 0 001.81-2.05zM43.48 31.6H45V33h-1.52zm.06 2.4H45v6.34h-1.46zM46.89 34h1.45v1.43a2.25 2.25 0 012.24-1.55v1.54h-.08c-1.27 0-2.16.83-2.16 2.51v2.41h-1.45zM55.42 40.29v-.78a2.57 2.57 0 01-2.05.91 2 2 0 01-2.26-2c0-1.4 1.09-2.08 2.57-2.08a5.18 5.18 0 011.75.27v-.12c0-.88-.55-1.36-1.56-1.36a4.37 4.37 0 00-1.81.4l-.4-1.17a5.47 5.47 0 012.41-.52c1.87 0 2.79 1 2.79 2.67v3.76zm0-2.66a4.2 4.2 0 00-1.42-.25c-.91 0-1.45.37-1.45 1 0 .6.54.94 1.22.94 1 0 1.68-.54 1.68-1.33zM58.83 38.53V35.2H58V34h.81v-1.79h1.45V34H62v1.2h-1.7v3.11a.69.69 0 00.78.79 1.9 1.9 0 00.9-.22v1.19a2.59 2.59 0 01-1.31.32 1.62 1.62 0 01-1.84-1.86zM62.92 37.14A3.14 3.14 0 0166 33.82c2 0 3 1.58 3 3.41a2.8 2.8 0 010 .4h-4.63a1.77 1.77 0 001.82 1.61 2.3 2.3 0 001.72-.75l.85.75a3.21 3.21 0 01-2.59 1.19 3.16 3.16 0 01-3.25-3.29zm4.69-.46A1.65 1.65 0 0066 35a1.71 1.71 0 00-1.64 1.67zM70 39.46l.65-1a3.5 3.5 0 002.07.78c.63 0 1-.26 1-.68 0-.5-.68-.66-1.42-.89-.94-.27-2-.65-2-1.86a2 2 0 012.26-1.93 4.39 4.39 0 012.32.71l-.57 1a3.59 3.59 0 00-1.79-.6c-.56 0-.89.26-.89.63 0 .45.69.64 1.43.88.92.29 2 .71 2 1.85 0 1.34-1 2-2.35 2a4.48 4.48 0 01-2.71-.89zM76.42 38.64H78v1.65h-1.58zM79.16 37.16a3.26 3.26 0 013.28-3.31A3.19 3.19 0 0185 34.91l-.9 1a2.14 2.14 0 00-1.64-.79 1.9 1.9 0 00-1.82 2 1.93 1.93 0 001.89 2 2.21 2.21 0 001.64-.79l.88.86a3.18 3.18 0 01-2.59 1.19 3.23 3.23 0 01-3.3-3.22zM85.83 37.16a3.38 3.38 0 016.75 0 3.31 3.31 0 01-3.39 3.3 3.27 3.27 0 01-3.36-3.3zm5.3 0a2 2 0 00-1.94-2 1.9 1.9 0 00-1.91 2 2 2 0 001.93 2 1.91 1.91 0 001.92-2zM94.06 34h1.45v1a2.28 2.28 0 011.93-1.09 2 2 0 011.88 1.12 2.6 2.6 0 012.15-1.12 2.13 2.13 0 012.22 2.42v4h-1.45v-3.6c0-1-.47-1.55-1.28-1.55s-1.36.55-1.36 1.57v3.58h-1.45v-3.65c0-1-.48-1.54-1.28-1.54s-1.36.6-1.36 1.58v3.57h-1.45zM112.6 45.39h-.6v-.51h1.84v.51h-.63V47h-.59zM114.07 44.88h.62l.5.82.5-.82h.62V47h-.58v-1.22l-.54.82-.54-.82V47h-.57z" transform="translate(-28.52 -26.83)"/></svg>